<?xml version="1.0" encoding="UTF-8"?><!DOCTYPE svg  PUBLIC '-//W3C//DTD SVG 20010904//EN'  'http://www.w3.org/TR/2001/REC-SVG-20010904/DTD/svg10.dtd'><svg width="50pt" height="50pt" version="1.0" viewBox="0 0 50 50" xmlns="http://www.w3.org/2000/svg"><g transform="translate(0 50) scale(.1 -.1)"><path d="m423 473c-18-7-16-27 5-46 25-23 39-21 47 3 11 34-17 58-52 43z"/><path d="m272 327c-84-84-113-120-118-146l-7-34 34 7c26 5 62 34 146 118 62 61 109 116 106 121s-56-41-117-102c-89-88-114-109-124-99s11 35 99 124c61 61 107 114 102 117s-60-44-121-106z"/><path d="m20 210v-190h190 190v151c0 97-4 148-10 144s-10-62-10-141v-134h-170-170v170 170h134c79 0 137 4 141 10s-47 10-144 10h-151v-190z"/></g></svg>
