<?xml version="1.0" encoding="UTF-8"?><!DOCTYPE svg  PUBLIC '-//W3C//DTD SVG 20010904//EN'  'http://www.w3.org/TR/2001/REC-SVG-20010904/DTD/svg10.dtd'><svg width="50pt" height="50pt" version="1.0" viewBox="0 0 50 50" xmlns="http://www.w3.org/2000/svg"><g transform="translate(0 50) scale(.1 -.1)"><path d="m56 444c-24-23-24-365 0-388 23-24 365-24 388 0 24 23 24 365 0 388-23 24-365 24-388 0zm379-194v-185h-185-185l-3 175c-1 96 0 180 3 187 3 11 44 13 187 11l183-3v-185z"/><path d="m160 333c0-4 17-24 37-45l37-38-39-40c-51-52-37-66 15-15l40 39 40-39c22-21 43-36 47-32s-11 25-32 47l-39 40 39 40c51 52 37 66-15 15l-40-39-38 37c-37 36-52 45-52 30z"/></g></svg>
