<?xml version="1.0" standalone="no"?><!DOCTYPE svg PUBLIC "-//W3C//DTD SVG 20010904//EN" "http://www.w3.org/TR/2001/REC-SVG-20010904/DTD/svg10.dtd"><svg version="1.0" xmlns="http://www.w3.org/2000/svg" width="50.000000pt" height="50.000000pt" viewBox="0 0 50.000000 50.000000" preserveAspectRatio="xMidYMid meet"><g transform="translate(0.000000,50.000000) scale(0.100000,-0.100000)" fill="#000000" stroke="none"><path d="M200 445 c-51 -52 -47 -75 5 -25 l35 34 0 -142 c0 -88 4 -142 10 -142 6 0 10 54 10 142 l0 142 35 -34 c52 -50 56 -27 5 25 -24 25 -47 45 -50 45 -3 0 -26 -20 -50 -45z"/><path d="M70 170 l0 -170 180 0 180 0 0 170 0 170 -55 0 c-30 0 -55 -4 -55 -10 0 -5 20 -10 45 -10 l45 0 0 -150 0 -150 -160 0 -160 0 0 150 0 150 45 0 c25 0 45 5 45 10 0 6 -25 10 -55 10 l-55 0 0 -170z"/></g></svg>
